<svg xmlns="http://www.w3.org/2000/svg" width="29.75" height="30" viewBox="0 0 29.75 30">
  <metadata><?xpacket begin="﻿" id="W5M0MpCehiHzreSzNTczkc9d"?>
<x:xmpmeta xmlns:x="adobe:ns:meta/" x:xmptk="Adobe XMP Core 5.6-c142 79.160924, 2017/07/13-01:06:39        ">
   <rdf:RDF xmlns:rdf="http://www.w3.org/1999/02/22-rdf-syntax-ns#">
      <rdf:Description rdf:about=""/>
   </rdf:RDF>
</x:xmpmeta>
                                                                                                    
                                                                                                    
                                                                                                    
                                                                                                    
                                                                                                    
                                                                                                    
                                                                                                    
                                                                                                    
                                                                                                    
                                                                                                    
                                                                                                    
                                                                                                    
                                                                                                    
                                                                                                    
                                                                                                    
                                                                                                    
                                                                                                    
                                                                                                    
                                                                                                    
                                                                                                    
                           
<?xpacket end="w"?></metadata>
<defs>
    <style>
      .cls-1 {
        fill: #fff;
        fill-rule: evenodd;
      }
    </style>
  </defs>
  <path id="_" data-name="" class="cls-1" d="M1327.18,13568.9a3.664,3.664,0,0,1,.7,2.6c0,10.4-.02,18.2-0.06,23.5a3.442,3.442,0,0,1-.73,2.5,3.509,3.509,0,0,1-2.55.7h-9.67a2.442,2.442,0,0,1-1.4-.3,1.74,1.74,0,0,1-.35-1.4v-5q0-3.45.06-5.1a1.737,1.737,0,0,0-.3-1.2,1.536,1.536,0,0,0-1.11-.3,9.852,9.852,0,0,1-2.46,0c-0.47,0-.7-0.1-0.7-0.5a0.577,0.577,0,0,1,.7-0.6H1312a0.971,0.971,0,0,0,.97-0.2,1.312,1.312,0,0,0,.21-1,21.352,21.352,0,0,1,0-3.2,3.354,3.354,0,0,1,1.23-2.8,3.8,3.8,0,0,1,3.04-.6,7.343,7.343,0,0,1,2.64.7c0.04,0,.08.1,0.12,0.1,0.5,0.2.7,0.5,0.58,0.8-0.19.4-.6,0.5-1.23,0.2a8.577,8.577,0,0,0-2.93-.7,1.969,1.969,0,0,0-2.11,1.7,7.5,7.5,0,0,0-.2,1.4c-0.02.5-.02,1,0,1.6s0.03,1,.03,1.3v0.3c0.04,0.3.35,0.4,0.94,0.4h4.51q0.99,0,.99.6c0,0.6-.35.8-1.05,0.7-0.94,0-2.42,0-4.45-.1a0.9,0.9,0,0,0-.8.2,1.118,1.118,0,0,0-.2.8c0.08,3.2.08,6.5,0,9.8a0.964,0.964,0,0,0,1.05,1.1h2.93c1.02,0,2.15.1,3.4,0.1s2.23,0.1,2.93.1a2.409,2.409,0,0,0,1.52-.4,2.8,2.8,0,0,0,.42-1.6l0.17-23.2a2.944,2.944,0,0,0-.35-1.9,2.833,2.833,0,0,0-1.99-.4q-7.56-.3-22.8-0.3a2.66,2.66,0,0,0-1.7.4,3.676,3.676,0,0,0-.41,1.8s-0.05,7.7-.17,23a3.324,3.324,0,0,0,.38,2,3.664,3.664,0,0,0,1.9.3c2.27,0,3.95,0,5.04.1q1.23,0,1.29.6c0,0.4-.41.7-1.23,0.7h-5.92a2.542,2.542,0,0,1-2.63-2.8v-12.1h0.06v-12a3.262,3.262,0,0,1,.7-2.4,3.2,3.2,0,0,1,2.4-.7h23.38A3.906,3.906,0,0,1,1327.18,13568.9Z" transform="translate(-1298.13 -13568.2)"/>
</svg>
