<svg xmlns="http://www.w3.org/2000/svg" width="27.88" height="30" viewBox="0 0 27.88 30">
  <metadata><?xpacket begin="﻿" id="W5M0MpCehiHzreSzNTczkc9d"?>
<x:xmpmeta xmlns:x="adobe:ns:meta/" x:xmptk="Adobe XMP Core 5.6-c142 79.160924, 2017/07/13-01:06:39        ">
   <rdf:RDF xmlns:rdf="http://www.w3.org/1999/02/22-rdf-syntax-ns#">
      <rdf:Description rdf:about=""/>
   </rdf:RDF>
</x:xmpmeta>
                                                                                                    
                                                                                                    
                                                                                                    
                                                                                                    
                                                                                                    
                                                                                                    
                                                                                                    
                                                                                                    
                                                                                                    
                                                                                                    
                                                                                                    
                                                                                                    
                                                                                                    
                                                                                                    
                                                                                                    
                                                                                                    
                                                                                                    
                                                                                                    
                                                                                                    
                                                                                                    
                           
<?xpacket end="w"?></metadata>
<defs>
    <style>
      .cls-1 {
        fill: #fff;
        fill-rule: evenodd;
      }
    </style>
  </defs>
  <path id="_" data-name="" class="cls-1" d="M1451.28,13590.9a6.164,6.164,0,0,1-1.05,4.9,6.006,6.006,0,0,1-3.17,2c-1.01.2-1.78,0.3-2.28,0.4h-2.93c-0.24,0-.59-0.1-1.06-0.1a19.355,19.355,0,0,1-3.81-1,5.092,5.092,0,0,1-2.63-2.6q-0.24-.9-0.3-1.2v-1.2a0.8,0.8,0,0,0,.06-0.3,3.79,3.79,0,0,1,.47-1.5,4.057,4.057,0,0,0,.24-0.4c0.19-.1.4,0.1,0.61,0.4a1.109,1.109,0,0,1,.15,1,3.647,3.647,0,0,0-.24,2,3.353,3.353,0,0,0,1.76,2.5,6.27,6.27,0,0,0,1.88.7,19.173,19.173,0,0,0,5.09.4,8.217,8.217,0,0,0,2.82-.4,4.52,4.52,0,0,0,2.57-1.7,5.091,5.091,0,0,0,.65-2.7,4.253,4.253,0,0,0-1.47-3.4,1.9,1.9,0,0,0-.29-0.1c-2.26-.2-4.2-0.4-5.8-0.4a25.817,25.817,0,0,0-3.69.5,2.486,2.486,0,0,1-.32.1,2.246,2.246,0,0,0-.33.1,0.826,0.826,0,0,1-.38-0.2,1.847,1.847,0,0,1-.29-0.5c-0.06-.1-0.05-0.3.03-0.3a17.512,17.512,0,0,1,7.03-.9h0.76a2.794,2.794,0,0,0,.82.1,6.583,6.583,0,0,0-.58-0.5,2.1,2.1,0,0,0-.59-0.4,2.873,2.873,0,0,1-1.11-2.9,0.386,0.386,0,0,0-.06-0.2h-0.12a5.838,5.838,0,0,1-2.63,0,6.629,6.629,0,0,1-5.45-4.4,8.515,8.515,0,0,1-.41-4.2,6.716,6.716,0,0,1,1.23-3.3,7.358,7.358,0,0,1,4.39-2.7c0.2,0,.46-0.1.79-0.1a2.347,2.347,0,0,1,.73-0.1,52.942,52.942,0,0,1,7.97,0,0.4,0.4,0,0,1,.36.4,0.71,0.71,0,0,1-.06.6,0.827,0.827,0,0,1-.53.2h-2.75a0.33,0.33,0,0,0-.3.1,0.8,0.8,0,0,1,.32.2,0.734,0.734,0,0,1,.27.3,7.289,7.289,0,0,1,2.4,4.5,7.954,7.954,0,0,1-1.76,6.1,17.54,17.54,0,0,1-1.93,1.4,5.7,5.7,0,0,1-.7.6,1.39,1.39,0,0,0-.18,2.2,7.433,7.433,0,0,0,1.17.9c1.72,1.2,2.62,1.8,2.7,1.9h0a5.194,5.194,0,0,1,1.93,3.2h0Zm-3.75-11.4a5.194,5.194,0,0,0,1.29-3.1,5.477,5.477,0,0,0-.59-3.5,5.938,5.938,0,0,0-4.21-3.3,8.411,8.411,0,0,0-4.69.8,4.637,4.637,0,0,0-2.46,2.8,7.4,7.4,0,0,0-.47,2.8,5.989,5.989,0,0,0,.82,3.1,5.9,5.9,0,0,0,5.45,2.9c1.64,0,3.26-.9,4.86-2.5h0Zm14.42,2.9v0.4a0.875,0.875,0,0,1-.88.4h-3.11a0.391,0.391,0,0,0-.41.4v3.1c0,0.6-.2.9-0.59,0.9-0.43,0-.64-0.3-0.64-0.9v-3.2a0.262,0.262,0,0,0-.29-0.3h-3.23c-0.54,0-.82-0.2-0.82-0.6s0.28-.6.82-0.6h3.17a0.322,0.322,0,0,0,.35-0.4v-3.4a0.5,0.5,0,0,1,.64-0.5c0.39,0,.59.1,0.59,0.5v3.5a0.291,0.291,0,0,0,.35.3h3.17a0.95,0.95,0,0,1,.88.4h0Z" transform="translate(-1434.06 -13568.2)"/>
</svg>
