<svg xmlns="http://www.w3.org/2000/svg" width="30" height="30" viewBox="0 0 30 30">
  <metadata><?xpacket begin="﻿" id="W5M0MpCehiHzreSzNTczkc9d"?>
<x:xmpmeta xmlns:x="adobe:ns:meta/" x:xmptk="Adobe XMP Core 5.6-c142 79.160924, 2017/07/13-01:06:39        ">
   <rdf:RDF xmlns:rdf="http://www.w3.org/1999/02/22-rdf-syntax-ns#">
      <rdf:Description rdf:about=""/>
   </rdf:RDF>
</x:xmpmeta>
                                                                                                    
                                                                                                    
                                                                                                    
                                                                                                    
                                                                                                    
                                                                                                    
                                                                                                    
                                                                                                    
                                                                                                    
                                                                                                    
                                                                                                    
                                                                                                    
                                                                                                    
                                                                                                    
                                                                                                    
                                                                                                    
                                                                                                    
                                                                                                    
                                                                                                    
                                                                                                    
                           
<?xpacket end="w"?></metadata>
<defs>
    <style>
      .cls-1 {
        fill: #fff;
        fill-rule: evenodd;
      }
    </style>
  </defs>
  <path id="_" data-name="" class="cls-1" d="M1418,13595.3a2.945,2.945,0,0,1-.64,2.2,2.822,2.822,0,0,1-2.23.7h-24.32a2.47,2.47,0,0,1-2.81-2.7v-6c0-.7.21-1.1,0.64-1.1a0.923,0.923,0,0,1,.53,1.1v5.7a1.674,1.674,0,0,0,1.82,1.9h24.02a1.6,1.6,0,0,0,1.82-1.8v-9.4a1.092,1.092,0,0,0-.24-0.9,0.735,0.735,0,0,0-.82-0.2h-0.88a4.96,4.96,0,0,0-3.07.3,4.062,4.062,0,0,0-1.79,2.5,5.784,5.784,0,0,1-2.84,3.4,7.178,7.178,0,0,1-4.37,1,8.538,8.538,0,0,1-4.62-1.9,6.746,6.746,0,0,1-2.58-3.9,1.6,1.6,0,0,0-2-1.4h-4.33a1.065,1.065,0,0,1-1.29-1.2v-13.1c0.08-1.5,1-2.3,2.75-2.3h24.5a2.481,2.481,0,0,1,2.75,2.8v24.3Zm-10.05-6.5a6.608,6.608,0,0,0,1.91-4.8,6.157,6.157,0,0,0-1.91-4.6,7.37,7.37,0,0,0-4.83-2,6.572,6.572,0,0,0-4.66,2,6.528,6.528,0,0,0,.06,9.5,6.087,6.087,0,0,0,4.66,1.8A6.752,6.752,0,0,0,1407.95,13588.8Zm8.61-5.6a1.123,1.123,0,0,0,.27-1c-0.08-3.7-.08-7.3,0-11a2.008,2.008,0,0,0-.44-1.4,2.045,2.045,0,0,0-1.5-.4h-23.96a1.738,1.738,0,0,0-1.35.4,1.669,1.669,0,0,0-.41,1.3v11.2a1.014,1.014,0,0,0,.27.9,1.143,1.143,0,0,0,.9.2,23.393,23.393,0,0,1,3.52.1,2,2,0,0,0,1.17-.1,2.1,2.1,0,0,0,.53-1.2,7.794,7.794,0,0,1,2.87-4.4,7.356,7.356,0,0,1,4.86-1.6,8.068,8.068,0,0,1,4.72,1.7,7.8,7.8,0,0,1,2.78,4.3,1.438,1.438,0,0,0,1.53,1.3,16.048,16.048,0,0,1,3.16-.1A1.188,1.188,0,0,0,1416.56,13583.2Zm-2.08-11.1a4.954,4.954,0,0,1,.36,2.5,3.8,3.8,0,0,1-.47,2.4,3.643,3.643,0,0,1-2.29.5,3.876,3.876,0,0,1-2.37-.5,4.356,4.356,0,0,1-.5-2.6,4.262,4.262,0,0,1,.41-2.4,6.284,6.284,0,0,1,2.64-.3C1413.51,13571.7,1414.25,13571.8,1414.48,13572.1Zm-0.76,2.3a2.129,2.129,0,0,0-.38-1.3,1.22,1.22,0,0,0-1.26-.2,1.813,1.813,0,0,0-1.35.2,1.425,1.425,0,0,0-.35,1.3,3.466,3.466,0,0,0,.33,1.5,1.737,1.737,0,0,0,1.25.3,2.215,2.215,0,0,0,1.38-.4,1.831,1.831,0,0,0,.38-1.4h0Zm-8.08,13.5q-0.06.3,0.03,0.3a0.125,0.125,0,0,1-.12.2c-0.14.1-.22,0.2-0.24,0.2a0.463,0.463,0,0,1-.26.1l-0.23.1a6.531,6.531,0,0,1-1.82.4,4.9,4.9,0,0,1-3.98-2.1,4.334,4.334,0,0,1-1-4.2,0.8,0.8,0,0,1,.06-0.3,1.969,1.969,0,0,1,.12-0.4,0.784,0.784,0,0,0,.17-0.2h0.35c0.39,0,.55.4,0.47,1.1a3.973,3.973,0,0,0,1.23,3.9,4.349,4.349,0,0,0,4.04.7c0.67-.2,1.06-0.2,1.18.2h0Z" transform="translate(-1388 -13568.2)"/>
</svg>
