<svg xmlns="http://www.w3.org/2000/svg" width="30.03" height="25.3" viewBox="0 0 30.03 25.3">
  <metadata><?xpacket begin="﻿" id="W5M0MpCehiHzreSzNTczkc9d"?>
<x:xmpmeta xmlns:x="adobe:ns:meta/" x:xmptk="Adobe XMP Core 5.6-c142 79.160924, 2017/07/13-01:06:39        ">
   <rdf:RDF xmlns:rdf="http://www.w3.org/1999/02/22-rdf-syntax-ns#">
      <rdf:Description rdf:about=""/>
   </rdf:RDF>
</x:xmpmeta>
                                                                                                    
                                                                                                    
                                                                                                    
                                                                                                    
                                                                                                    
                                                                                                    
                                                                                                    
                                                                                                    
                                                                                                    
                                                                                                    
                                                                                                    
                                                                                                    
                                                                                                    
                                                                                                    
                                                                                                    
                                                                                                    
                                                                                                    
                                                                                                    
                                                                                                    
                                                                                                    
                           
<?xpacket end="w"?></metadata>
<defs>
    <style>
      .cls-1 {
        fill: #fff;
        fill-rule: evenodd;
      }
    </style>
  </defs>
  <path id="_" data-name="" class="cls-1" d="M1372.88,13574.3a3.132,3.132,0,0,1-.88,1.3,3.846,3.846,0,0,0-1.26,1.4,8.108,8.108,0,0,0-.58,1.5q-0.15.75-.27,1.8a17.209,17.209,0,0,1-4.3,9.7,17.164,17.164,0,0,1-21.71,3.4,0.67,0.67,0,0,0-.32-0.2,0.662,0.662,0,0,1-.33-0.2,0.864,0.864,0,0,1-.2-0.2c-0.1-.2-0.09-0.3.03-0.4a0.294,0.294,0,0,1,.2-0.3,0.367,0.367,0,0,1,.3-0.1,0.539,0.539,0,0,1,.35.1h0.32a11.069,11.069,0,0,0,5.39-.5,0.852,0.852,0,0,1,1.06.3c0.07,0.4-.16.6-0.71,0.8-0.35.1-.87,0.2-1.55,0.4s-1.22.3-1.61,0.4a15.019,15.019,0,0,0,6.39,1.2,15.485,15.485,0,0,0,10.54-4.4,17.4,17.4,0,0,0,5.04-9.8,4.255,4.255,0,0,0,.12-0.8v-1.2q0-.15.03-0.6a1.8,1.8,0,0,1,.11-0.6,4.745,4.745,0,0,0,.21-0.5,1.14,1.14,0,0,1,.32-0.5,3.318,3.318,0,0,0,.5-0.4c0.2-.1.41-0.2,0.64-0.3-0.07-.1-0.15-0.1-0.23-0.2l-0.12-.1a4.022,4.022,0,0,1-.55.1,1.661,1.661,0,0,1-.65.1,0.493,0.493,0,0,1-.44-0.4,0.458,0.458,0,0,1-.03-0.5,1.675,1.675,0,0,1,.5-0.4,1.142,1.142,0,0,1,.47-0.3l0.35-.6-0.17-.1a3.838,3.838,0,0,1-3.52-.6,4.759,4.759,0,0,0-5.24-.3,5.128,5.128,0,0,0-2.85,4.6,4.318,4.318,0,0,1-.41,2.1c-0.19.2-.91,0.1-2.16-0.1a19.111,19.111,0,0,1-9.85-5.3,3.668,3.668,0,0,0-.44,2.8,6.462,6.462,0,0,0,1.5,3c0.07,0,.23.2,0.47,0.3a0.751,0.751,0,0,1,.41.3,1.888,1.888,0,0,1,0,.6,0.674,0.674,0,0,1-.44.4,2.058,2.058,0,0,1-.71-0.1,1.715,1.715,0,0,0-.61-0.1,1.845,1.845,0,0,0-.65-0.2,5.5,5.5,0,0,0,3.28,4.3l0.47,0.1a1.378,1.378,0,0,1,.65.3,0.66,0.66,0,0,1,.06.5q-0.12.45-1.53,0.6l-0.58.1a4.941,4.941,0,0,0,3.57,2.8h0.41a0.716,0.716,0,0,1,.35.1,2,2,0,0,1,.41.1,0.429,0.429,0,0,1,.24.2,0.481,0.481,0,0,1,.06.4c-0.08.5-.49,0.6-1.23,0.4a6.292,6.292,0,0,1-4.4-2.9,0.622,0.622,0,0,1-.23-0.3,4.057,4.057,0,0,1-.24-0.4,1.522,1.522,0,0,0-.17-0.3,1.168,1.168,0,0,1-.12-0.4,1.9,1.9,0,0,1,.03-0.4,1.057,1.057,0,0,1,.15-0.5,2.073,2.073,0,0,1,.02-0.4,1.039,1.039,0,0,0-.26-0.3l-0.23-.1a7,7,0,0,1-1.88-3.8l-0.06-.3a2.127,2.127,0,0,1-.06-0.4v-0.3a0.178,0.178,0,0,1,.09-0.2,0.346,0.346,0,0,1,.27-0.2,2.6,2.6,0,0,1,.46-0.2q0.54,0,.12-0.6a0.156,0.156,0,0,1-.12-0.1,6.8,6.8,0,0,1-.23-5.5,1.379,1.379,0,0,1,.73-1.1,1.764,1.764,0,0,1,1.09.7,16.977,16.977,0,0,0,8.96,5.3,2.441,2.441,0,0,0,1.23,0,1.417,1.417,0,0,0,.41-1.1,7.246,7.246,0,0,1,3.46-5.4,5.509,5.509,0,0,1,5.8,0,3.945,3.945,0,0,0,4.63,0,1.07,1.07,0,0,1,1.11,0,0.97,0.97,0,0,1-.11,1.1,3.679,3.679,0,0,1-.24.6,3.181,3.181,0,0,0-.23.5,0.5,0.5,0,0,0,.64.1,0.342,0.342,0,0,1,.24-0.1h0c0.62,0,.8.3,0.52,0.8h0Z" transform="translate(-1342.97 -13570.5)"/>
</svg>
