<svg xmlns="http://www.w3.org/2000/svg" width="46.188" height="50.06" viewBox="0 0 46.188 50.06">
  <metadata><?xpacket begin="﻿" id="W5M0MpCehiHzreSzNTczkc9d"?>
<x:xmpmeta xmlns:x="adobe:ns:meta/" x:xmptk="Adobe XMP Core 5.6-c142 79.160924, 2017/07/13-01:06:39        ">
   <rdf:RDF xmlns:rdf="http://www.w3.org/1999/02/22-rdf-syntax-ns#">
      <rdf:Description rdf:about=""/>
   </rdf:RDF>
</x:xmpmeta>
                                                                                                    
                                                                                                    
                                                                                                    
                                                                                                    
                                                                                                    
                                                                                                    
                                                                                                    
                                                                                                    
                                                                                                    
                                                                                                    
                                                                                                    
                                                                                                    
                                                                                                    
                                                                                                    
                                                                                                    
                                                                                                    
                                                                                                    
                                                                                                    
                                                                                                    
                                                                                                    
                           
<?xpacket end="w"?></metadata>
<defs>
    <style>
      .cls-1 {
        fill: #38c695;
        fill-rule: evenodd;
      }
    </style>
  </defs>
  <path id="_" data-name="" class="cls-1" d="M798.7,5959.97a17.4,17.4,0,0,0-5.235,12.71v4.01H815.48v1.96H791.409v-5.97a19.609,19.609,0,0,1,4.11-12.22,18.906,18.906,0,0,1,10.372-7.04,12.907,12.907,0,0,1-4.795-4.4,11.34,11.34,0,0,1-1.859-6.36,11.484,11.484,0,0,1,3.571-8.5,12.012,12.012,0,0,1,20.5,8.5,11.815,11.815,0,0,1-1.81,6.41,11.6,11.6,0,0,1-4.844,4.35,19.441,19.441,0,0,1,9.1,5.28h-3.033a17.517,17.517,0,0,0-11.253-4.01A17.3,17.3,0,0,0,798.7,5959.97Zm12.769-7.33a9.789,9.789,0,0,0,7.143-2.89,10.017,10.017,0,0,0,0-14.17,9.789,9.789,0,0,0-7.143-2.89A9.975,9.975,0,1,0,811.468,5952.64Zm26.126,22.1h-6.067v5.96H829.57v-5.96H823.5v-2.06h6.067v-5.96h1.957v5.96h6.067v2.06Z" transform="translate(-791.406 -5930.63)"/>
</svg>
