<svg xmlns="http://www.w3.org/2000/svg" width="50.12" height="42.84" viewBox="0 0 50.12 42.84">
  <metadata><?xpacket begin="﻿" id="W5M0MpCehiHzreSzNTczkc9d"?>
<x:xmpmeta xmlns:x="adobe:ns:meta/" x:xmptk="Adobe XMP Core 5.6-c142 79.160924, 2017/07/13-01:06:39        ">
   <rdf:RDF xmlns:rdf="http://www.w3.org/1999/02/22-rdf-syntax-ns#">
      <rdf:Description rdf:about=""/>
   </rdf:RDF>
</x:xmpmeta>
                                                                                                    
                                                                                                    
                                                                                                    
                                                                                                    
                                                                                                    
                                                                                                    
                                                                                                    
                                                                                                    
                                                                                                    
                                                                                                    
                                                                                                    
                                                                                                    
                                                                                                    
                                                                                                    
                                                                                                    
                                                                                                    
                                                                                                    
                                                                                                    
                                                                                                    
                                                                                                    
                           
<?xpacket end="w"?></metadata>
<defs>
    <style>
      .cls-1 {
        fill: #b27cf5;
        fill-rule: evenodd;
      }
    </style>
  </defs>
  <path id="_" data-name="" class="cls-1" d="M1132.55,5947.69a12.978,12.978,0,0,1-3.91,9.48l-21.14,20.05-21.13-19.85a13.359,13.359,0,0,1-3.92-9.64,13.012,13.012,0,0,1,3.92-9.53,13.177,13.177,0,0,1,9.78-3.83,12.7,12.7,0,0,1,9.39,3.83,28.979,28.979,0,0,1,2.16,2.95,11.4,11.4,0,0,1,2.15-2.95,13.438,13.438,0,0,1,18.79,0A12.985,12.985,0,0,1,1132.55,5947.69Zm-2.15-.25a11,11,0,0,0-3.33-8.06,10.5,10.5,0,0,0-8.02-3.34,10.993,10.993,0,0,0-8.12,3.34c-0.53.66-1.08,1.41-1.67,2.26l-1.76,2.95-1.76-2.95a18.649,18.649,0,0,0-1.66-2.26,11.579,11.579,0,0,0-16.34,16.41l19.76,18.98,19.77-18.98a11.332,11.332,0,0,0,3.13-8.35h0Z" transform="translate(-1082.44 -5934.38)"/>
</svg>
