<svg xmlns="http://www.w3.org/2000/svg" width="50.06" height="44.34" viewBox="0 0 50.06 44.34">
  <metadata><?xpacket begin="﻿" id="W5M0MpCehiHzreSzNTczkc9d"?>
<x:xmpmeta xmlns:x="adobe:ns:meta/" x:xmptk="Adobe XMP Core 5.6-c142 79.160924, 2017/07/13-01:06:39        ">
   <rdf:RDF xmlns:rdf="http://www.w3.org/1999/02/22-rdf-syntax-ns#">
      <rdf:Description rdf:about=""/>
   </rdf:RDF>
</x:xmpmeta>
                                                                                                    
                                                                                                    
                                                                                                    
                                                                                                    
                                                                                                    
                                                                                                    
                                                                                                    
                                                                                                    
                                                                                                    
                                                                                                    
                                                                                                    
                                                                                                    
                                                                                                    
                                                                                                    
                                                                                                    
                                                                                                    
                                                                                                    
                                                                                                    
                                                                                                    
                                                                                                    
                           
<?xpacket end="w"?></metadata>
<defs>
    <style>
      .cls-1 {
        fill: #feb960;
        fill-rule: evenodd;
      }
    </style>
  </defs>
  <path id="_" data-name="" class="cls-1" d="M1423.49,5951.31h-1.96v26.98H1375.4v-26.98h-1.95v-7.75h15.93a5.744,5.744,0,0,1,4.3-9.62,5.893,5.893,0,0,0,9.58,0,5.78,5.78,0,0,1,4.3,9.62h15.93v7.75Zm-22.92-14.33a3.873,3.873,0,0,0-1.12,2.75v3.83h3.81a3.82,3.82,0,0,0,2.73-1.13,3.587,3.587,0,0,0,1.18-2.7,3.832,3.832,0,0,0-1.13-2.8,3.778,3.778,0,0,0-2.78-1.12A3.592,3.592,0,0,0,1400.57,5936.98Zm-9.63,5.45a3.843,3.843,0,0,0,2.74,1.13h3.81v-3.83a3.873,3.873,0,0,0-1.12-2.75,3.607,3.607,0,0,0-2.69-1.17,3.784,3.784,0,0,0-2.79,1.12,3.823,3.823,0,0,0-1.12,2.8A3.613,3.613,0,0,0,1390.94,5942.43Zm-15.54,6.92h22.09v-3.83H1375.4v3.83Zm1.86,27.07h20.23v-25.11h-20.23v25.11Zm42.42-25.11h-20.23v25.11h20.23v-25.11Zm1.85-5.79h-22.08v3.83h22.08v-3.83Z" transform="translate(-1373.44 -5933.94)"/>
</svg>
