<svg xmlns="http://www.w3.org/2000/svg" width="39.844" height="40" viewBox="0 0 39.844 40">
  <metadata><?xpacket begin="﻿" id="W5M0MpCehiHzreSzNTczkc9d"?>
<x:xmpmeta xmlns:x="adobe:ns:meta/" x:xmptk="Adobe XMP Core 5.6-c142 79.160924, 2017/07/13-01:06:39        ">
   <rdf:RDF xmlns:rdf="http://www.w3.org/1999/02/22-rdf-syntax-ns#">
      <rdf:Description rdf:about=""/>
   </rdf:RDF>
</x:xmpmeta>
                                                                                                    
                                                                                                    
                                                                                                    
                                                                                                    
                                                                                                    
                                                                                                    
                                                                                                    
                                                                                                    
                                                                                                    
                                                                                                    
                                                                                                    
                                                                                                    
                                                                                                    
                                                                                                    
                                                                                                    
                                                                                                    
                                                                                                    
                                                                                                    
                                                                                                    
                                                                                                    
                           
<?xpacket end="w"?></metadata>
<defs>
    <style>
      .cls-1 {
        fill: #b27cf5;
        fill-rule: evenodd;
      }
    </style>
  </defs>
  <path id="_" data-name="" class="cls-1" d="M941.648,602a18.236,18.236,0,1,0,5.33-13.007A17.738,17.738,0,0,0,941.648,602Zm38.2,0a19.966,19.966,0,1,1-5.836-14.14A19.309,19.309,0,0,1,979.849,602Zm-7.625-7.656-1.323-1.328-10.97,11.172-7.624-7.812-1.323,1.327,8.947,8.829Zm-12.293-8.672A1.327,1.327,0,1,0,961.254,587,1.332,1.332,0,0,0,959.931,585.671Zm0,30A1.327,1.327,0,1,0,961.254,617,1.33,1.33,0,0,0,959.931,615.672Zm-14.937-15A1.327,1.327,0,1,0,946.316,602,1.332,1.332,0,0,0,944.994,600.671Zm29.875,0A1.327,1.327,0,1,0,976.192,602,1.332,1.332,0,0,0,974.869,600.671Z" transform="translate(-940 -582)"/>
</svg>
