<svg xmlns="http://www.w3.org/2000/svg" width="39.75" height="39.938" viewBox="0 0 39.75 39.938">
  <metadata><?xpacket begin="﻿" id="W5M0MpCehiHzreSzNTczkc9d"?>
<x:xmpmeta xmlns:x="adobe:ns:meta/" x:xmptk="Adobe XMP Core 5.6-c142 79.160924, 2017/07/13-01:06:39        ">
   <rdf:RDF xmlns:rdf="http://www.w3.org/1999/02/22-rdf-syntax-ns#">
      <rdf:Description rdf:about=""/>
   </rdf:RDF>
</x:xmpmeta>
                                                                                                    
                                                                                                    
                                                                                                    
                                                                                                    
                                                                                                    
                                                                                                    
                                                                                                    
                                                                                                    
                                                                                                    
                                                                                                    
                                                                                                    
                                                                                                    
                                                                                                    
                                                                                                    
                                                                                                    
                                                                                                    
                                                                                                    
                                                                                                    
                                                                                                    
                                                                                                    
                           
<?xpacket end="w"?></metadata>
<defs>
    <style>
      .cls-1 {
        fill: #feb960;
        fill-rule: evenodd;
      }
    </style>
  </defs>
  <path id="_" data-name="" class="cls-1" d="M1234.21,601.976a19.316,19.316,0,0,1-5.83,14.114,19.977,19.977,0,1,1,0-28.229A19.32,19.32,0,0,1,1234.21,601.976Zm-1.59,0a17.775,17.775,0,0,0-5.36-12.99,18.381,18.381,0,1,0,0,25.978A17.77,17.77,0,0,0,1232.62,601.976Zm-6.62-7.129a1.03,1.03,0,0,1-.1,1.689l-13.62,13.317a0.98,0.98,0,0,1-.74.281,1.146,1.146,0,0,1-.84-0.281l-5.32-5.346a1.19,1.19,0,0,1,1.68-1.687l4.48,4.5,12.78-12.473A1.048,1.048,0,0,1,1226,594.847Z" transform="translate(-1194.47 -582)"/>
</svg>
