<svg xmlns="http://www.w3.org/2000/svg" width="15" height="15" viewBox="0 0 15 15">
  <metadata><?xpacket begin="﻿" id="W5M0MpCehiHzreSzNTczkc9d"?>
<x:xmpmeta xmlns:x="adobe:ns:meta/" x:xmptk="Adobe XMP Core 5.6-c142 79.160924, 2017/07/13-01:06:39        ">
   <rdf:RDF xmlns:rdf="http://www.w3.org/1999/02/22-rdf-syntax-ns#">
      <rdf:Description rdf:about=""/>
   </rdf:RDF>
</x:xmpmeta>
                                                                                                    
                                                                                                    
                                                                                                    
                                                                                                    
                                                                                                    
                                                                                                    
                                                                                                    
                                                                                                    
                                                                                                    
                                                                                                    
                                                                                                    
                                                                                                    
                                                                                                    
                                                                                                    
                                                                                                    
                                                                                                    
                                                                                                    
                                                                                                    
                                                                                                    
                                                                                                    
                           
<?xpacket end="w"?></metadata>
<defs>
    <style>
      .cls-1 {
        fill: #616161;
        fill-rule: evenodd;
      }
    </style>
  </defs>
  <path id="_" data-name="" class="cls-1" d="M1342.18,5430.82a2.7,2.7,0,0,1,.82,1.99v9.38a2.8,2.8,0,0,1-2.81,2.81h-9.38a2.8,2.8,0,0,1-2.81-2.81v-9.38a2.8,2.8,0,0,1,2.81-2.81h9.38A2.7,2.7,0,0,1,1342.18,5430.82Zm-4.57,5.13h-1.41v-0.76a0.857,0.857,0,0,1,.11-0.5,0.59,0.59,0,0,1,.51-0.15h0.76v-1.55h-1.23a1.719,1.719,0,0,0-1.44.51,2.608,2.608,0,0,0-.38,1.54v0.91h-1.14v1.55h1.14v4.51h1.67v-4.51h1.23Z" transform="translate(-1328 -5430)"/>
</svg>
