<svg xmlns="http://www.w3.org/2000/svg" width="15" height="15" viewBox="0 0 15 15">
  <metadata><?xpacket begin="﻿" id="W5M0MpCehiHzreSzNTczkc9d"?>
<x:xmpmeta xmlns:x="adobe:ns:meta/" x:xmptk="Adobe XMP Core 5.6-c142 79.160924, 2017/07/13-01:06:39        ">
   <rdf:RDF xmlns:rdf="http://www.w3.org/1999/02/22-rdf-syntax-ns#">
      <rdf:Description rdf:about=""/>
   </rdf:RDF>
</x:xmpmeta>
                                                                                                    
                                                                                                    
                                                                                                    
                                                                                                    
                                                                                                    
                                                                                                    
                                                                                                    
                                                                                                    
                                                                                                    
                                                                                                    
                                                                                                    
                                                                                                    
                                                                                                    
                                                                                                    
                                                                                                    
                                                                                                    
                                                                                                    
                                                                                                    
                                                                                                    
                                                                                                    
                           
<?xpacket end="w"?></metadata>
<defs>
    <style>
      .cls-1 {
        fill: #616161;
        fill-rule: evenodd;
      }
    </style>
  </defs>
  <path id="_" data-name="" class="cls-1" d="M1342.18,5522.82a2.7,2.7,0,0,1,.82,1.99v9.38a2.8,2.8,0,0,1-2.81,2.81h-9.38a2.8,2.8,0,0,1-2.81-2.81v-9.38a2.8,2.8,0,0,1,2.81-2.81h9.38A2.7,2.7,0,0,1,1342.18,5522.82Zm-1.99,2.34a0.312,0.312,0,0,0-.35-0.35h-8.68a0.312,0.312,0,0,0-.35.35v8.68a0.312,0.312,0,0,0,.35.35h8.68a0.312,0.312,0,0,0,.35-0.35v-8.68Zm-2.82,2.46h1.88v-1.87h-1.88v1.87Zm-1.87,0a1.913,1.913,0,1,1-1.32.56A1.808,1.808,0,0,1,1335.5,5527.62Zm2.72,1.41h1.03v4.22h-7.5v-4.22h1.03a3.408,3.408,0,0,0-.06.47,2.664,2.664,0,0,0,.82,1.98,2.8,2.8,0,0,0,3.92,0,2.664,2.664,0,0,0,.82-1.98,3.408,3.408,0,0,0-.06-0.47h0Z" transform="translate(-1328 -5522)"/>
</svg>
