<svg xmlns="http://www.w3.org/2000/svg" width="15" height="15" viewBox="0 0 15 15">
  <metadata><?xpacket begin="﻿" id="W5M0MpCehiHzreSzNTczkc9d"?>
<x:xmpmeta xmlns:x="adobe:ns:meta/" x:xmptk="Adobe XMP Core 5.6-c142 79.160924, 2017/07/13-01:06:39        ">
   <rdf:RDF xmlns:rdf="http://www.w3.org/1999/02/22-rdf-syntax-ns#">
      <rdf:Description rdf:about=""/>
   </rdf:RDF>
</x:xmpmeta>
                                                                                                    
                                                                                                    
                                                                                                    
                                                                                                    
                                                                                                    
                                                                                                    
                                                                                                    
                                                                                                    
                                                                                                    
                                                                                                    
                                                                                                    
                                                                                                    
                                                                                                    
                                                                                                    
                                                                                                    
                                                                                                    
                                                                                                    
                                                                                                    
                                                                                                    
                                                                                                    
                           
<?xpacket end="w"?></metadata>
<defs>
    <style>
      .cls-1 {
        fill: #616161;
        fill-rule: evenodd;
      }
    </style>
  </defs>
  <path id="_" data-name="" class="cls-1" d="M1342.18,5491.82a2.7,2.7,0,0,1,.82,1.99v9.38a2.8,2.8,0,0,1-2.81,2.81h-9.38a2.8,2.8,0,0,1-2.81-2.81v-9.38a2.8,2.8,0,0,1,2.81-2.81h9.38A2.7,2.7,0,0,1,1342.18,5491.82Zm-8.56,3.75h-1.87v6.56h1.87v-6.56Zm0-1.29a0.87,0.87,0,0,0-.24-0.61,0.832,0.832,0,0,0-.63-0.27,0.8,0.8,0,0,0-.63.27,0.894,0.894,0,0,0,0,1.24,0.821,0.821,0,0,0,.63.25,0.852,0.852,0,0,0,.63-0.25,0.868,0.868,0,0,0,.24-0.63h0Zm6.57,3.84a3.73,3.73,0,0,0-.21-1.32,1.719,1.719,0,0,0-.51-0.79,2.275,2.275,0,0,0-.59-0.34,1.555,1.555,0,0,0-.57-0.1,2.888,2.888,0,0,0-1.87.62v-0.62h-1.88v6.56h1.88v-4.04l0.06-.21a1.089,1.089,0,0,1,.36-0.41,1.248,1.248,0,0,1,.72-0.2,0.685,0.685,0,0,1,.73.82v4.04h1.88v-4.01Z" transform="translate(-1328 -5491)"/>
</svg>
