<svg xmlns="http://www.w3.org/2000/svg" width="35.94" height="34.68" viewBox="0 0 35.94 34.68">
  <metadata><?xpacket begin="﻿" id="W5M0MpCehiHzreSzNTczkc9d"?>
<x:xmpmeta xmlns:x="adobe:ns:meta/" x:xmptk="Adobe XMP Core 5.6-c142 79.160924, 2017/07/13-01:06:39        ">
   <rdf:RDF xmlns:rdf="http://www.w3.org/1999/02/22-rdf-syntax-ns#">
      <rdf:Description rdf:about=""/>
   </rdf:RDF>
</x:xmpmeta>
                                                                                                    
                                                                                                    
                                                                                                    
                                                                                                    
                                                                                                    
                                                                                                    
                                                                                                    
                                                                                                    
                                                                                                    
                                                                                                    
                                                                                                    
                                                                                                    
                                                                                                    
                                                                                                    
                                                                                                    
                                                                                                    
                                                                                                    
                                                                                                    
                                                                                                    
                                                                                                    
                           
<?xpacket end="w"?></metadata>
<defs>
    <style>
      .cls-1 {
        fill: #fc5f45;
        fill-rule: evenodd;
      }
    </style>
  </defs>
  <path id="_" data-name="" class="cls-1" d="M1267.97,5472.97a5.212,5.212,0,0,1-1.56,3.83,5.145,5.145,0,0,1-3.75,1.56,5.026,5.026,0,0,1-4.61-2.66l-15.55,6.57a7.512,7.512,0,0,1,.16,1.4,5.647,5.647,0,0,1-.63,2.58l10,7.19a5.188,5.188,0,0,1,3.99-1.8,5.069,5.069,0,0,1,3.75,1.6,5.252,5.252,0,0,1,1.56,3.79,5.315,5.315,0,0,1-10.63,0,5.279,5.279,0,0,1,.55-2.5l-10-7.27a5.041,5.041,0,0,1-3.91,1.72,5.171,5.171,0,0,1-3.75-1.52,5.384,5.384,0,0,1,0-7.58,5.211,5.211,0,0,1,3.75-1.52,4.924,4.924,0,0,1,4.61,2.66l15.63-6.57a4.546,4.546,0,0,1-.24-1.48,5.343,5.343,0,0,1,5.32-5.31,5.326,5.326,0,0,1,5.31,5.31h0Zm-15.94,24.06a3.985,3.985,0,0,0,7.97,0,3.937,3.937,0,0,0-1.17-2.89,3.971,3.971,0,0,0-5.63,0,3.937,3.937,0,0,0-1.17,2.89h0Zm-10.7-13.36a4.012,4.012,0,1,0-1.17,2.81A3.837,3.837,0,0,0,1241.33,5483.67Zm25.31-10.7a3.985,3.985,0,0,0-7.97,0,3.937,3.937,0,0,0,1.17,2.89,3.971,3.971,0,0,0,5.63,0,3.937,3.937,0,0,0,1.17-2.89h0Z" transform="translate(-1232.03 -5467.66)"/>
</svg>
