<svg xmlns="http://www.w3.org/2000/svg" width="15" height="15" viewBox="0 0 15 15">
  <metadata><?xpacket begin="﻿" id="W5M0MpCehiHzreSzNTczkc9d"?>
<x:xmpmeta xmlns:x="adobe:ns:meta/" x:xmptk="Adobe XMP Core 5.6-c142 79.160924, 2017/07/13-01:06:39        ">
   <rdf:RDF xmlns:rdf="http://www.w3.org/1999/02/22-rdf-syntax-ns#">
      <rdf:Description rdf:about=""/>
   </rdf:RDF>
</x:xmpmeta>
                                                                                                    
                                                                                                    
                                                                                                    
                                                                                                    
                                                                                                    
                                                                                                    
                                                                                                    
                                                                                                    
                                                                                                    
                                                                                                    
                                                                                                    
                                                                                                    
                                                                                                    
                                                                                                    
                                                                                                    
                                                                                                    
                                                                                                    
                                                                                                    
                                                                                                    
                                                                                                    
                           
<?xpacket end="w"?></metadata>
<defs>
    <style>
      .cls-1 {
        fill: #616161;
        fill-rule: evenodd;
      }
    </style>
  </defs>
  <path id="_" data-name="" class="cls-1" d="M1342.18,5461.82a2.7,2.7,0,0,1,.82,1.99v9.38a2.8,2.8,0,0,1-2.81,2.81h-9.38a2.8,2.8,0,0,1-2.81-2.81v-9.38a2.8,2.8,0,0,1,2.81-2.81h9.38A2.7,2.7,0,0,1,1342.18,5461.82Zm-2.02,4.04a5.072,5.072,0,0,1-1.06.3,1.708,1.708,0,0,0,.79-1.03,3.3,3.3,0,0,1-1.17.44,1.736,1.736,0,0,0-1.35-.59,1.764,1.764,0,0,0-1.3.56,1.793,1.793,0,0,0-.54,1.29,2.443,2.443,0,0,0,.06.44,5.157,5.157,0,0,1-3.81-1.93,1.823,1.823,0,0,0-.26.93,1.729,1.729,0,0,0,.85,1.53,1.535,1.535,0,0,1-.85-0.24v0.03a1.781,1.781,0,0,0,.42,1.16,1.915,1.915,0,0,0,1.07.66,3.356,3.356,0,0,1-.5.06,1.559,1.559,0,0,1-.35-0.03,1.754,1.754,0,0,0,1.73,1.29,3.72,3.72,0,0,1-2.29.79c-0.06,0-.13-0.01-0.23-0.02a1.971,1.971,0,0,0-.21-0.01,5.21,5.21,0,0,0,2.82.82,4.825,4.825,0,0,0,3.83-1.63,5.321,5.321,0,0,0,1.44-3.62c0-.03-0.01-0.08-0.01-0.13a0.838,0.838,0,0,1-.02-0.1,3.491,3.491,0,0,0,.94-0.97h0Z" transform="translate(-1328 -5461)"/>
</svg>
