<svg xmlns="http://www.w3.org/2000/svg" width="43.72" height="40" viewBox="0 0 43.72 40">
  <metadata><?xpacket begin="﻿" id="W5M0MpCehiHzreSzNTczkc9d"?>
<x:xmpmeta xmlns:x="adobe:ns:meta/" x:xmptk="Adobe XMP Core 5.6-c142 79.160924, 2017/07/13-01:06:39        ">
   <rdf:RDF xmlns:rdf="http://www.w3.org/1999/02/22-rdf-syntax-ns#">
      <rdf:Description rdf:about=""/>
   </rdf:RDF>
</x:xmpmeta>
                                                                                                    
                                                                                                    
                                                                                                    
                                                                                                    
                                                                                                    
                                                                                                    
                                                                                                    
                                                                                                    
                                                                                                    
                                                                                                    
                                                                                                    
                                                                                                    
                                                                                                    
                                                                                                    
                                                                                                    
                                                                                                    
                                                                                                    
                                                                                                    
                                                                                                    
                                                                                                    
                           
<?xpacket end="w"?></metadata>
<defs>
    <style>
      .cls-1 {
        fill: #feb960;
        fill-rule: evenodd;
      }
    </style>
  </defs>
  <path id="_" data-name="" class="cls-1" d="M1404.25,2281.02h-27.5v-40h27.5v40ZM1378,2242.27v3.75h25v-3.75h-25Zm0,5v25h25v-25h-25Zm25,32.5v-6.25h-25v6.25h25Zm-15-35h5v-1.25h-5v1.25Zm4.37,31.87a1.818,1.818,0,0,1-.54,1.33,1.883,1.883,0,0,1-2.66,0A1.881,1.881,0,1,1,1392.37,2276.64Zm-1.87-.62a0.543,0.543,0,0,0-.62.62,0.62,0.62,0,1,0,1.24,0A0.543,0.543,0,0,0,1390.5,2276.02Zm14.03-25h15.94v30h-15.94v-30Zm15,29.06v-4.69h-14.06v4.69h14.06Zm0-5.63V2255.7h-14.06v18.75h14.06Zm-14.06-22.5v2.82h14.06v-2.82h-14.06Zm5.16,1.88h3.74v-0.94h-3.74v0.94Zm3.28,23.9a1.358,1.358,0,0,1-.41,1,1.425,1.425,0,0,1-2,0,1.412,1.412,0,0,1,0-1.99,1.425,1.425,0,0,1,2,0A1.351,1.351,0,0,1,1413.91,2277.73Zm-1.41-.46a0.465,0.465,0,1,0,.47.46A0.411,0.411,0,0,0,1412.5,2277.27Z" transform="translate(-1376.75 -2241.03)"/>
</svg>
