<svg xmlns="http://www.w3.org/2000/svg" width="55" height="42.97" viewBox="0 0 55 42.97">
  <metadata><?xpacket begin="﻿" id="W5M0MpCehiHzreSzNTczkc9d"?>
<x:xmpmeta xmlns:x="adobe:ns:meta/" x:xmptk="Adobe XMP Core 5.6-c142 79.160924, 2017/07/13-01:06:39        ">
   <rdf:RDF xmlns:rdf="http://www.w3.org/1999/02/22-rdf-syntax-ns#">
      <rdf:Description rdf:about=""/>
   </rdf:RDF>
</x:xmpmeta>
                                                                                                    
                                                                                                    
                                                                                                    
                                                                                                    
                                                                                                    
                                                                                                    
                                                                                                    
                                                                                                    
                                                                                                    
                                                                                                    
                                                                                                    
                                                                                                    
                                                                                                    
                                                                                                    
                                                                                                    
                                                                                                    
                                                                                                    
                                                                                                    
                                                                                                    
                                                                                                    
                           
<?xpacket end="w"?></metadata>
<defs>
    <style>
      .cls-1 {
        fill: #b27cf5;
        fill-rule: evenodd;
      }
    </style>
  </defs>
  <path id="_" data-name="" class="cls-1" d="M1125.41,2282H1079v-36.11h46.41V2282Zm-44.69-34.39v22.89l11.17-11.28,12.25,13.97,8.48-5.16,11.07,9.56v-29.98h-42.97Zm42.97,32.67v-0.43l-11.28-9.67-8.7,5.16-11.82-13.54-11.17,11.06v7.42h42.97Zm-36.96-41.26H1134v36.1h-7.73v-1.72h6.01v-32.66h-43.83v4.29h-1.72v-6.01Zm21.49,18.91a5.138,5.138,0,1,1,1.5,3.65A4.973,4.973,0,0,1,1108.22,2257.93Zm1.72,0a3.3,3.3,0,1,0,.96-2.47A3.37,3.37,0,0,0,1109.94,2257.93Z" transform="translate(-1079 -2239.03)"/>
</svg>
