<svg xmlns="http://www.w3.org/2000/svg" width="35.34" height="54.9" viewBox="0 0 35.34 54.9">
  <metadata><?xpacket begin="﻿" id="W5M0MpCehiHzreSzNTczkc9d"?>
<x:xmpmeta xmlns:x="adobe:ns:meta/" x:xmptk="Adobe XMP Core 5.6-c142 79.160924, 2017/07/13-01:06:39        ">
   <rdf:RDF xmlns:rdf="http://www.w3.org/1999/02/22-rdf-syntax-ns#">
      <rdf:Description rdf:about=""/>
   </rdf:RDF>
</x:xmpmeta>
                                                                                                    
                                                                                                    
                                                                                                    
                                                                                                    
                                                                                                    
                                                                                                    
                                                                                                    
                                                                                                    
                                                                                                    
                                                                                                    
                                                                                                    
                                                                                                    
                                                                                                    
                                                                                                    
                                                                                                    
                                                                                                    
                                                                                                    
                                                                                                    
                                                                                                    
                                                                                                    
                           
<?xpacket end="w"?></metadata>
<defs>
    <style>
      .cls-1 {
        fill: #38c695;
        fill-rule: evenodd;
      }
    </style>
  </defs>
  <path id="_" data-name="" class="cls-1" d="M1234.13,10471.8a17.508,17.508,0,0,1,2.7,9.5,17.686,17.686,0,0,1-35.37,0,17.508,17.508,0,0,1,2.7-9.5,16.854,16.854,0,0,1,7.14-6.3c-3.28-7.9-4.92-12.5-4.92-13.9v-7.6h25.53v7.6c0,1.1-1.64,5.7-4.92,13.9A16.913,16.913,0,0,1,1234.13,10471.8Zm-21.07-7.1a18.553,18.553,0,0,1,6.08-1.1,17.014,17.014,0,0,1,5.98,1.1c3.2-7.5,4.8-11.9,4.8-13.1v-5.6h-9.84v13.4h-1.99V10446h-9.72v5.6c0,1,1.56,5.3,4.69,13.1h0Zm21.77,16.6a15.569,15.569,0,1,0-4.62,11.1A15.263,15.263,0,0,0,1234.83,10481.3Zm-3.86,0a11.864,11.864,0,1,1-3.45-8.4A11.369,11.369,0,0,1,1230.97,10481.3Zm-1.99,0a9.378,9.378,0,0,0-2.87-6.9A9.609,9.609,0,1,0,1228.98,10481.3Z" transform="translate(-1201.47 -10444)"/>
</svg>
