<svg xmlns="http://www.w3.org/2000/svg" width="47.969" height="47.9" viewBox="0 0 47.969 47.9">
  <metadata><?xpacket begin="﻿" id="W5M0MpCehiHzreSzNTczkc9d"?>
<x:xmpmeta xmlns:x="adobe:ns:meta/" x:xmptk="Adobe XMP Core 5.6-c142 79.160924, 2017/07/13-01:06:39        ">
   <rdf:RDF xmlns:rdf="http://www.w3.org/1999/02/22-rdf-syntax-ns#">
      <rdf:Description rdf:about=""/>
   </rdf:RDF>
</x:xmpmeta>
                                                                                                    
                                                                                                    
                                                                                                    
                                                                                                    
                                                                                                    
                                                                                                    
                                                                                                    
                                                                                                    
                                                                                                    
                                                                                                    
                                                                                                    
                                                                                                    
                                                                                                    
                                                                                                    
                                                                                                    
                                                                                                    
                                                                                                    
                                                                                                    
                                                                                                    
                                                                                                    
                           
<?xpacket end="w"?></metadata>
<defs>
    <style>
      .cls-1 {
        fill: #fc5f45;
        fill-rule: evenodd;
      }
    </style>
  </defs>
  <path id="_" data-name="" class="cls-1" d="M853.206,10447.5v47.9H805.255v-47.9h47.951Zm-45.963,2v9h43.975v-9H807.243Zm43.975,43.9v-33H807.243v33h43.975Zm-30.993-37.9h3.041v-3h-3.041v3Zm14.97,0h3.041v-3H835.2v3Zm-12.747,11.7H824.2v15.7H822.1v-11.1h-3.86v-1.7h0.351c1.012,0,1.7-.1,2.047-0.1a2.487,2.487,0,0,0,1.111-.7,2.624,2.624,0,0,0,.7-1.7v-0.4Zm15.613,6.6a5.354,5.354,0,0,1,1.462,3.9,5.418,5.418,0,0,1-1.638,4,5.528,5.528,0,0,1-3.859,1.5,5,5,0,0,1-3.8-1.4,4.66,4.66,0,0,1-1.462-3.6v-0.3h2.105v0.3a3.1,3.1,0,0,0,.936,2.3,3.238,3.238,0,0,0,2.339.9,3,3,0,0,0,2.4-1.1,4.462,4.462,0,0,0,.878-2.7,3.578,3.578,0,0,0-.936-2.5,3.547,3.547,0,0,0-5.5.7l-0.117.1h-1.754l1.637-8.4h8.07v1.9h-6.549l-0.7,3.7a4.02,4.02,0,0,1,2.573-.8A5.223,5.223,0,0,1,838.061,10473.8Z" transform="translate(-805.25 -10447.5)"/>
</svg>
