<svg xmlns="http://www.w3.org/2000/svg" width="51.969" height="46.7" viewBox="0 0 51.969 46.7">
  <metadata><?xpacket begin="﻿" id="W5M0MpCehiHzreSzNTczkc9d"?>
<x:xmpmeta xmlns:x="adobe:ns:meta/" x:xmptk="Adobe XMP Core 5.6-c142 79.160924, 2017/07/13-01:06:39        ">
   <rdf:RDF xmlns:rdf="http://www.w3.org/1999/02/22-rdf-syntax-ns#">
      <rdf:Description rdf:about=""/>
   </rdf:RDF>
</x:xmpmeta>
                                                                                                    
                                                                                                    
                                                                                                    
                                                                                                    
                                                                                                    
                                                                                                    
                                                                                                    
                                                                                                    
                                                                                                    
                                                                                                    
                                                                                                    
                                                                                                    
                                                                                                    
                                                                                                    
                                                                                                    
                                                                                                    
                                                                                                    
                                                                                                    
                                                                                                    
                                                                                                    
                           
<?xpacket end="w"?></metadata>
<defs>
    <style>
      .cls-1 {
        fill: #feb960;
        fill-rule: evenodd;
      }
    </style>
  </defs>
  <path id="_" data-name="" class="cls-1" d="M440.312,10483.9v3.9l9.367,5.3-0.937,1.7-9.483-5.2-9.484,5.2-0.937-1.7,9.367-5.3v-3.9H413.266v-35.8h51.985v35.8H440.312Zm-25.055-1.9h48v-32h-48v32Zm27.046-26.2,1.873,0.6-5.5,18.4-6.439-8.9-4.215,8.3-5.62-11.4-3.162,11.7-1.99-.5,4.566-16.7,6.206,12.5,3.98-7.7,5.972,8.3Zm15.22,5.9a5.955,5.955,0,0,1,1.757,4.4,5.826,5.826,0,0,1-1.757,4.2,6.128,6.128,0,0,1-4.332,1.7,5.985,5.985,0,0,1-4.215-1.7,5.829,5.829,0,0,1-1.756-4.2,5.906,5.906,0,0,1,5.971-6.1A6.128,6.128,0,0,1,457.523,10461.7Zm-1.463,7.2a3.9,3.9,0,0,0,1.229-2.8,3.59,3.59,0,0,0-1.229-2.8,3.98,3.98,0,0,0-2.869-1.2,3.784,3.784,0,0,0-2.81,1.2,3.672,3.672,0,0,0-1.17,2.8,3.9,3.9,0,0,0,1.229,2.8,4.185,4.185,0,0,0,2.751,1.1A4.329,4.329,0,0,0,456.06,10468.9Z" transform="translate(-413.281 -10448.1)"/>
</svg>
