<svg xmlns="http://www.w3.org/2000/svg" width="45.843" height="48" viewBox="0 0 45.843 48">
  <metadata><?xpacket begin="﻿" id="W5M0MpCehiHzreSzNTczkc9d"?>
<x:xmpmeta xmlns:x="adobe:ns:meta/" x:xmptk="Adobe XMP Core 5.6-c142 79.160924, 2017/07/13-01:06:39        ">
   <rdf:RDF xmlns:rdf="http://www.w3.org/1999/02/22-rdf-syntax-ns#">
      <rdf:Description rdf:about=""/>
   </rdf:RDF>
</x:xmpmeta>
                                                                                                    
                                                                                                    
                                                                                                    
                                                                                                    
                                                                                                    
                                                                                                    
                                                                                                    
                                                                                                    
                                                                                                    
                                                                                                    
                                                                                                    
                                                                                                    
                                                                                                    
                                                                                                    
                                                                                                    
                                                                                                    
                                                                                                    
                                                                                                    
                                                                                                    
                                                                                                    
                           
<?xpacket end="w"?></metadata>
<defs>
    <style>
      .cls-1 {
        fill: #38c695;
        fill-rule: evenodd;
      }
    </style>
  </defs>
  <path id="_" data-name="" class="cls-1" d="M850.043,10232.3a5.177,5.177,0,0,1-2.866,1.7v34.1h-1.988V10234a5.321,5.321,0,0,1-2.865-1.8,4.934,4.934,0,0,1-1.111-3.2,4.59,4.59,0,0,1,1.462-3.5,4.789,4.789,0,0,1,3.567-1.5,4.665,4.665,0,0,1,3.45,1.5,4.6,4.6,0,0,1,1.462,3.5A5.026,5.026,0,0,1,850.043,10232.3Zm-1.755-1.1a2.978,2.978,0,0,0,.877-2.2,2.914,2.914,0,0,0-.877-2.1,2.771,2.771,0,0,0-2.046-.9,3.034,3.034,0,0,0-3.041,3,2.978,2.978,0,0,0,.877,2.2,2.9,2.9,0,0,0,2.164.9A2.771,2.771,0,0,0,848.288,10231.2Zm-34.15,32.6a5.145,5.145,0,0,1,1.111,3.2,4.977,4.977,0,0,1-1.462,3.6,4.707,4.707,0,0,1-3.567,1.4,4.56,4.56,0,0,1-3.45-1.4,5.164,5.164,0,0,1-.351-6.8,4.66,4.66,0,0,1,2.865-1.7V10228h1.988v34.1A4.665,4.665,0,0,1,814.138,10263.8Zm-1.754,5.4a3.2,3.2,0,0,0,0-4.4,3.253,3.253,0,0,0-2.164-.8,3.1,3.1,0,0,0-2.047.8,3.2,3.2,0,0,0,0,4.4,2.772,2.772,0,0,0,2.047.9A2.9,2.9,0,0,0,812.384,10269.2Zm19.765-24.3a4.873,4.873,0,0,1,1.111,3.1,4.945,4.945,0,0,1-1.111,3.2,4.665,4.665,0,0,1-2.866,1.7v15.2h-2.105v-15.2a4.66,4.66,0,0,1-2.865-1.7,4.934,4.934,0,0,1-1.111-3.2,4.862,4.862,0,0,1,1.111-3.1,4.383,4.383,0,0,1,2.865-1.8V10228h2.105v15.1A4.387,4.387,0,0,1,832.149,10244.9Zm-0.877,3.1a2.83,2.83,0,0,0-.936-2.1,2.912,2.912,0,0,0-4.21,0,2.824,2.824,0,0,0,0,4.2,2.716,2.716,0,0,0,4.21,0A2.83,2.83,0,0,0,831.272,10248Z" transform="translate(-805.313 -10224)"/>
</svg>
